<?xml version="1.0" encoding="utf-8"?>
<!-- Generator: Adobe Illustrator 18.0.0, SVG Export Plug-In . SVG Version: 6.00 Build 0)  -->
<!DOCTYPE svg PUBLIC "-//W3C//DTD SVG 1.1//EN" "http://www.w3.org/Graphics/SVG/1.1/DTD/svg11.dtd">
<svg version="1.1" id="图层_1" xmlns="http://www.w3.org/2000/svg" xmlns:xlink="http://www.w3.org/1999/xlink" x="0px" y="0px"
	 viewBox="0 0 108 24" enable-background="new 0 0 108 24" xml:space="preserve">
<g>
	<linearGradient id="SVGID_1_" gradientUnits="userSpaceOnUse" x1="3.9466" y1="-1.146" x2="9.1909" y2="9.2436">
		<stop  offset="0" style="stop-color:#3366FF"/>
		<stop  offset="1" style="stop-color:#33CCFF"/>
	</linearGradient>
	<path fill="url(#SVGID_1_)" d="M12.8,8h0.5C10.8,3.2,5.8,0,0,0v0.4C5.5,0.4,10.3,3.5,12.8,8z"/>
	<linearGradient id="SVGID_2_" gradientUnits="userSpaceOnUse" x1="12.1768" y1="17.9272" x2="14.4718" y2="22.4739">
		<stop  offset="0" style="stop-color:#3366FF"/>
		<stop  offset="1" style="stop-color:#33CCFF"/>
	</linearGradient>
	<path fill="url(#SVGID_2_)" d="M14.6,16.3c-0.2,2.9-1.3,5.5-3,7.7H12h0.1c1.6-2.2,2.6-4.8,2.9-7.7H14.6z"/>
</g>
<g opacity="0.6">
	<g>
		<path d="M11.5,14.1V15h-0.6c0-0.3,0.1-0.8,0.1-1.2V9.5c0-0.4,0-0.7,0-0.9c0.4,0,0.8,0,1.3,0c0.5,0,0.9,0,1.3,0
			c0,0.2-0.1,0.5-0.1,0.9v4c0,0.4,0,0.8,0.1,1.2H13v-0.6H11.5z M11.5,11.3H13V9.1h-1.5V11.3z M13,11.7h-1.5v2H13V11.7z M15,12.9
			c-0.1,1.4-0.5,2.4-1.2,3.2c-0.1-0.2-0.4-0.3-0.6-0.3c0.5-0.3,0.8-0.7,1-1.2c0.2-0.5,0.3-1.4,0.3-2.7V9.6c0-0.4,0-0.8,0-1.2
			c0.5,0,1,0,1.7,0c0.6,0,1.2,0,1.6,0c0,0.2,0,0.6,0,1.2v5.5c0,0.2,0,0.4-0.1,0.5c-0.1,0.1-0.2,0.2-0.4,0.3c-0.2,0.1-0.6,0.1-1,0.1
			c0-0.2-0.1-0.5-0.3-0.7c0.3,0,0.5,0.1,0.7,0.1c0.2,0,0.4,0,0.5-0.1c0.1-0.1,0.2-0.2,0.2-0.4v-2H15z M15,10.5h2.2V8.8H15V10.5z
			 M17.1,10.9H15v1.5h2.2V10.9z"/>
		<path d="M21.2,9.8c0.6,0,1,0,1.4-0.1v0.6c-0.4,0-0.9-0.1-1.4-0.1v0.6c0.5,0.4,0.9,1,1.4,1.6l-0.5,0.4c-0.3-0.6-0.7-1-0.9-1.3v3
			c0,0.5,0,1,0.1,1.6h-0.7c0.1-0.6,0.1-1.2,0.1-1.6v-3c-0.3,0.9-0.7,1.8-1.3,2.6c-0.1-0.2-0.3-0.3-0.5-0.4c0.8-0.9,1.4-2,1.8-3.3
			c-0.5,0-1,0-1.5,0.1V9.7c0.4,0,0.9,0.1,1.5,0.1c0-1.1,0-1.7,0-1.9c0.1,0,0.2,0.1,0.3,0.1c0.1,0,0.2,0,0.3,0c0.1,0,0.2,0,0.2,0.1
			c0,0,0,0.1-0.1,0.1c-0.1,0.1-0.1,0.1-0.1,0.2c0,0.1,0,0.1,0,0.2V9.8z M27.3,14.6c-0.1,0.4-0.2,0.6-0.2,0.8
			c-0.1,0.2-0.2,0.3-0.3,0.3c-0.1,0-0.4,0.1-0.7,0.1c-0.3,0-0.5-0.1-0.6-0.2c-0.1-0.2-0.1-0.5-0.1-0.9V9.1h-1.7c0,0.8,0,1.6,0,2.3
			c0,0.7,0,1.3-0.1,1.9c-0.1,0.6-0.2,1-0.4,1.4c-0.2,0.4-0.5,0.9-1,1.4c-0.1-0.2-0.3-0.3-0.6-0.4c0.4-0.3,0.7-0.6,0.9-1
			c0.2-0.4,0.4-0.8,0.4-1.3c0.1-0.5,0.1-1.2,0.1-2.2c0-1,0-1.8,0-2.5c0.3,0,0.7,0.1,1.4,0.1c0.7,0,1.2,0,1.5-0.1
			C25.9,9,25.8,9.5,25.8,10v4.5c0,0.3,0,0.5,0.1,0.6c0.1,0.1,0.2,0.2,0.3,0.2c0.2,0,0.3-0.1,0.4-0.2c0.1-0.1,0.1-0.4,0.2-0.8
			C26.9,14.5,27.1,14.6,27.3,14.6z"/>
		<path d="M29.3,15.8v0.4h-0.6c0-0.3,0.1-0.6,0.1-1v-0.8c0-0.2,0-0.4,0-0.6c-0.4,0.1-0.6,0.2-0.6,0.2c-0.1-0.2-0.2-0.4-0.4-0.5
			c1.7-0.3,2.7-0.8,3.2-1.3c-1.1,0-2,0-2.8,0.1v-0.6c0.7,0,1.7,0.1,3.1,0.1c0.2-0.3,0.3-0.6,0.3-1.1c0.2,0.1,0.4,0.1,0.6,0.1
			c0.1,0,0.1,0,0.1,0.1c0,0,0,0.1-0.1,0.1c-0.1,0.1-0.3,0.4-0.4,0.8H34c-0.3-0.3-0.6-0.5-0.9-0.6l0.3-0.3c0.4,0.2,0.7,0.4,1,0.6
			l-0.2,0.3c0.7,0,1.3,0,1.6-0.1v0.6c-0.7,0-1.7-0.1-2.9-0.1c0.5,0.3,1,0.6,1.6,0.8c0.6,0.2,1.2,0.3,1.8,0.3
			c-0.1,0.1-0.3,0.3-0.4,0.6l-0.6-0.1c0,0.2-0.1,0.4-0.1,0.7V15c0,0.3,0,0.7,0.1,1h-0.6v-0.2h-1.7v0.3h-0.6c0-0.3,0.1-0.6,0.1-1
			v-0.8c0-0.4,0-0.6,0-0.9c0.4,0,0.8,0,1.2,0c0.4,0,0.7,0,1.1,0c-0.9-0.2-1.7-0.7-2.5-1.4h-0.6c-0.4,0.6-1.1,1.1-2.2,1.5l0.8,0
			c0.5,0,1,0,1.4,0c0,0.2-0.1,0.5-0.1,0.9v0.7c0,0.4,0,0.7,0.1,1H31v-0.3H29.3z M31.4,10.8c-0.5,0-0.9-0.1-1.4-0.1s-0.9,0-1.3,0
			c0-0.7,0-1.2,0-1.5c0-0.3,0-0.6,0-0.8c0.3,0,0.7,0.1,1.3,0.1c0.5,0,1,0,1.4-0.1c0,0.2,0,0.5,0,0.7c0,0.2,0,0.6,0,0.9
			C31.4,10.5,31.4,10.7,31.4,10.8z M30.8,10.3V8.9h-1.6v1.5H30.8z M31,15.3v-1.4h-1.6v1.4H31z M35.2,10.7c-0.3,0-0.8-0.1-1.4-0.1
			c-0.6,0-1.1,0-1.3,0c0-0.4,0-0.9,0-1.3c0-0.4,0-0.8,0-1c0.3,0,0.7,0,1.4,0c0.7,0,1.1,0,1.4,0c0,0.3,0,0.7,0,1.2
			C35.1,10.1,35.2,10.5,35.2,10.7z M34.6,15.3v-1.5h-1.7v1.5H34.6z M34.6,10.3V8.9H33v1.4H34.6z"/>
		<path d="M41,11.5c-0.2,0.8-0.6,1.6-1.3,2.4c-0.6,0.8-1.4,1.5-2.4,2.1c-0.1-0.2-0.2-0.4-0.5-0.5c0.7-0.4,1.4-0.8,1.9-1.3
			c0.5-0.5,1-1,1.3-1.6c0.3-0.6,0.5-1.2,0.5-1.8c0.1-0.6,0.1-1.1,0.1-1.4c0-0.3,0-0.7-0.1-1.1c0.2,0,0.5,0.1,0.7,0.1
			c0.1,0,0.1,0,0.1,0.1c0,0,0,0.1-0.1,0.1c-0.1,0-0.1,0.2-0.1,0.4c0,0.4-0.1,1-0.2,1.7c0.3,1,0.9,2,1.7,3c0.8,0.9,1.5,1.5,2.2,1.8
			c-0.2,0.1-0.4,0.3-0.5,0.6c-0.6-0.4-1.3-1-2-1.9C41.8,13.2,41.3,12.3,41,11.5z"/>
	</g>
</g>
</svg>
